<?xml version="1.0" standalone="no"?>
<!DOCTYPE svg PUBLIC "-//W3C//DTD SVG 20010904//EN"
 "http://www.w3.org/TR/2001/REC-SVG-20010904/DTD/svg10.dtd">
<svg version="1.0" xmlns="http://www.w3.org/2000/svg"
 width="1578.000000pt" height="930.000000pt" viewBox="0 0 1578.000000 930.000000"
 preserveAspectRatio="xMidYMid meet">

<g transform="translate(0.000000,930.000000) scale(0.100000,-0.100000)"
fill="#000000" stroke="none">
<path d="M6472 9198 c-28 -51 -469 -892 -982 -1868 -513 -976 -947 -1803 -964
-1837 -30 -56 -31 -61 -12 -53 12 4 1006 409 2210 900 1203 490 2193 889 2200
887 9 -4 180 -333 854 -1652 79 -154 337 -657 573 -1117 236 -460 429 -839
429 -842 0 -3 -1634 -7 -3631 -8 l-3632 -3 -494 -940 c-635 -1208 -1237 -2354
-1325 -2522 l-70 -133 1604 0 1603 1 396 787 396 787 3069 3 3070 2 398 -790
398 -790 1605 0 1605 0 -20 33 c-10 17 -1103 2105 -2427 4640 l-2408 4607
-2198 0 -2198 0 -49 -92z"/>
<path d="M2255 4529 c-1204 -489 -2194 -891 -2200 -893 -5 -3 770 -4 1724 -3
l1734 2 468 889 c258 489 468 890 467 891 -2 2 -988 -397 -2193 -886z"/>
</g>
</svg>
